<svg width="588" height="457" viewBox="0 0 588 457" fill="none" xmlns="http://www.w3.org/2000/svg">
<rect y="200.156" width="361.335" height="54.7797" rx="9.4811" fill="#C28840"/>
<path d="M31.3631 237.546V217.183H39.3972C40.9417 217.183 42.2576 217.478 43.3447 218.068C44.4318 218.651 45.2604 219.463 45.8305 220.504C46.4072 221.538 46.6955 222.731 46.6955 224.083C46.6955 225.435 46.4039 226.629 45.8205 227.663C45.2372 228.697 44.392 229.502 43.285 230.079C42.1846 230.656 40.8523 230.944 39.2879 230.944H34.1671V227.494H38.5918C39.4204 227.494 40.1032 227.351 40.6401 227.066C41.1837 226.774 41.5881 226.373 41.8532 225.863C42.125 225.346 42.2609 224.753 42.2609 224.083C42.2609 223.407 42.125 222.817 41.8532 222.313C41.5881 221.803 41.1837 221.408 40.6401 221.13C40.0966 220.845 39.4072 220.703 38.572 220.703H35.6685V237.546H31.3631ZM56.067 237.845C54.5225 237.845 53.1868 237.516 52.0599 236.86C50.9396 236.197 50.0746 235.276 49.4647 234.096C48.8549 232.909 48.5499 231.534 48.5499 229.97C48.5499 228.392 48.8549 227.013 49.4647 225.833C50.0746 224.647 50.9396 223.725 52.0599 223.069C53.1868 222.406 54.5225 222.075 56.067 222.075C57.6115 222.075 58.9439 222.406 60.0641 223.069C61.191 223.725 62.0594 224.647 62.6693 225.833C63.2791 227.013 63.584 228.392 63.584 229.97C63.584 231.534 63.2791 232.909 62.6693 234.096C62.0594 235.276 61.191 236.197 60.0641 236.86C58.9439 237.516 57.6115 237.845 56.067 237.845ZM56.0869 234.563C56.7895 234.563 57.3762 234.364 57.8468 233.967C58.3175 233.562 58.6721 233.012 58.9107 232.316C59.156 231.62 59.2786 230.828 59.2786 229.94C59.2786 229.051 59.156 228.259 58.9107 227.563C58.6721 226.867 58.3175 226.317 57.8468 225.913C57.3762 225.508 56.7895 225.306 56.0869 225.306C55.3776 225.306 54.781 225.508 54.2971 225.913C53.8198 226.317 53.4586 226.867 53.2133 227.563C52.9747 228.259 52.8553 229.051 52.8553 229.94C52.8553 230.828 52.9747 231.62 53.2133 232.316C53.4586 233.012 53.8198 233.562 54.2971 233.967C54.781 234.364 55.3776 234.563 56.0869 234.563ZM79.0457 226.629L75.1678 226.867C75.1015 226.536 74.959 226.238 74.7403 225.972C74.5215 225.701 74.2332 225.485 73.8752 225.326C73.5239 225.16 73.103 225.078 72.6124 225.078C71.9562 225.078 71.4027 225.217 70.9519 225.495C70.5012 225.767 70.2758 226.131 70.2758 226.589C70.2758 226.953 70.4216 227.262 70.7133 227.514C71.005 227.765 71.5054 227.968 72.2147 228.12L74.9789 228.677C76.4638 228.982 77.5708 229.472 78.2999 230.149C79.0291 230.825 79.3937 231.713 79.3937 232.813C79.3937 233.814 79.0987 234.693 78.5087 235.448C77.9254 236.204 77.1233 236.794 76.1025 237.218C75.0883 237.636 73.9183 237.845 72.5926 237.845C70.5708 237.845 68.96 237.424 67.7602 236.582C66.567 235.733 65.8676 234.58 65.6622 233.122L69.8283 232.903C69.9543 233.519 70.2592 233.99 70.7431 234.315C71.227 234.633 71.8468 234.792 72.6025 234.792C73.3449 234.792 73.9415 234.649 74.3923 234.364C74.8497 234.073 75.0817 233.698 75.0883 233.241C75.0817 232.856 74.9193 232.542 74.6011 232.296C74.2829 232.044 73.7924 231.852 73.1295 231.72L70.4846 231.193C68.9931 230.894 67.8828 230.377 67.1536 229.641C66.4311 228.906 66.0698 227.968 66.0698 226.828C66.0698 225.846 66.335 225.001 66.8653 224.292C67.4022 223.583 68.1546 223.036 69.1224 222.651C70.0968 222.267 71.237 222.075 72.5428 222.075C74.4718 222.075 75.9898 222.482 77.0968 223.298C78.2104 224.113 78.8601 225.223 79.0457 226.629ZM82.0609 237.546V222.274H86.2967V237.546H82.0609ZM84.1888 220.305C83.5591 220.305 83.0188 220.096 82.568 219.678C82.1239 219.254 81.9019 218.747 81.9019 218.157C81.9019 217.574 82.1239 217.073 82.568 216.656C83.0188 216.231 83.5591 216.019 84.1888 216.019C84.8185 216.019 85.3555 216.231 85.7996 216.656C86.2503 217.073 86.4757 217.574 86.4757 218.157C86.4757 218.747 86.2503 219.254 85.7996 219.678C85.3555 220.096 84.8185 220.305 84.1888 220.305ZM97.8134 222.274V225.455H88.616V222.274H97.8134ZM90.7041 218.614H94.9399V232.853C94.9399 233.244 94.9995 233.549 95.1188 233.768C95.2381 233.98 95.4039 234.129 95.616 234.215C95.8347 234.301 96.0866 234.345 96.3717 234.345C96.5705 234.345 96.7694 234.328 96.9683 234.295C97.1671 234.255 97.3196 234.225 97.4256 234.205L98.0918 237.357C97.8797 237.424 97.5814 237.5 97.197 237.586C96.8125 237.679 96.3452 237.735 95.795 237.755C94.7741 237.795 93.8792 237.659 93.1103 237.347C92.348 237.036 91.7547 236.552 91.3305 235.896C90.9062 235.239 90.6974 234.411 90.7041 233.41V218.614ZM100.573 237.546V222.274H104.808V237.546H100.573ZM102.701 220.305C102.071 220.305 101.531 220.096 101.08 219.678C100.636 219.254 100.414 218.747 100.414 218.157C100.414 217.574 100.636 217.073 101.08 216.656C101.531 216.231 102.071 216.019 102.701 216.019C103.33 216.019 103.867 216.231 104.311 216.656C104.762 217.073 104.987 217.574 104.987 218.157C104.987 218.747 104.762 219.254 104.311 219.678C103.867 220.096 103.33 220.305 102.701 220.305ZM122.44 222.274L117.101 237.546H112.328L106.989 222.274H111.463L114.635 233.201H114.794L117.956 222.274H122.44ZM131.076 237.845C129.505 237.845 128.153 237.526 127.019 236.89C125.892 236.247 125.024 235.339 124.414 234.166C123.804 232.986 123.499 231.59 123.499 229.98C123.499 228.408 123.804 227.03 124.414 225.843C125.024 224.657 125.882 223.732 126.989 223.069C128.103 222.406 129.409 222.075 130.907 222.075C131.914 222.075 132.852 222.237 133.721 222.562C134.596 222.88 135.358 223.361 136.008 224.004C136.664 224.647 137.174 225.455 137.539 226.43C137.904 227.398 138.086 228.531 138.086 229.83V230.994H125.189V228.369H134.099C134.099 227.759 133.966 227.219 133.701 226.748C133.436 226.277 133.068 225.909 132.597 225.644C132.133 225.372 131.593 225.237 130.976 225.237C130.333 225.237 129.763 225.386 129.266 225.684C128.776 225.976 128.391 226.37 128.113 226.867C127.834 227.358 127.692 227.905 127.685 228.508V231.004C127.685 231.759 127.824 232.412 128.103 232.962C128.388 233.513 128.789 233.937 129.306 234.235C129.823 234.533 130.436 234.683 131.145 234.683C131.616 234.683 132.047 234.616 132.438 234.484C132.829 234.351 133.164 234.152 133.442 233.887C133.721 233.622 133.933 233.297 134.079 232.913L137.996 233.171C137.797 234.113 137.39 234.935 136.773 235.637C136.163 236.333 135.375 236.877 134.407 237.268C133.446 237.652 132.335 237.845 131.076 237.845ZM147.41 237.546V217.183H155.444C156.982 217.183 158.294 217.458 159.382 218.008C160.475 218.551 161.307 219.324 161.877 220.325C162.454 221.319 162.742 222.489 162.742 223.835C162.742 225.187 162.451 226.35 161.867 227.325C161.284 228.292 160.439 229.035 159.332 229.552C158.232 230.069 156.899 230.328 155.335 230.328H149.955V226.867H154.639C155.461 226.867 156.143 226.755 156.687 226.529C157.231 226.304 157.635 225.966 157.9 225.515C158.172 225.064 158.308 224.504 158.308 223.835C158.308 223.158 158.172 222.588 157.9 222.124C157.635 221.66 157.227 221.309 156.677 221.07C156.134 220.825 155.447 220.703 154.619 220.703H151.715V237.546H147.41ZM158.407 228.279L163.468 237.546H158.715L153.764 228.279H158.407ZM172.42 237.845C170.849 237.845 169.496 237.526 168.363 236.89C167.236 236.247 166.368 235.339 165.758 234.166C165.148 232.986 164.843 231.59 164.843 229.98C164.843 228.408 165.148 227.03 165.758 225.843C166.368 224.657 167.226 223.732 168.333 223.069C169.447 222.406 170.752 222.075 172.251 222.075C173.258 222.075 174.196 222.237 175.064 222.562C175.939 222.88 176.702 223.361 177.351 224.004C178.008 224.647 178.518 225.455 178.883 226.43C179.247 227.398 179.43 228.531 179.43 229.83V230.994H166.533V228.369H175.442C175.442 227.759 175.31 227.219 175.045 226.748C174.779 226.277 174.412 225.909 173.941 225.644C173.477 225.372 172.937 225.237 172.32 225.237C171.677 225.237 171.107 225.386 170.61 225.684C170.119 225.976 169.735 226.37 169.457 226.867C169.178 227.358 169.036 227.905 169.029 228.508V231.004C169.029 231.759 169.168 232.412 169.447 232.962C169.732 233.513 170.133 233.937 170.65 234.235C171.167 234.533 171.78 234.683 172.489 234.683C172.96 234.683 173.391 234.616 173.782 234.484C174.173 234.351 174.508 234.152 174.786 233.887C175.064 233.622 175.277 233.297 175.422 232.913L179.34 233.171C179.141 234.113 178.734 234.935 178.117 235.637C177.507 236.333 176.718 236.877 175.751 237.268C174.789 237.652 173.679 237.845 172.42 237.845ZM186.43 217.183V237.546H182.194V217.183H186.43ZM194.178 237.835C193.203 237.835 192.335 237.666 191.573 237.328C190.81 236.983 190.207 236.476 189.763 235.806C189.326 235.13 189.107 234.288 189.107 233.281C189.107 232.432 189.263 231.72 189.574 231.143C189.886 230.566 190.31 230.102 190.847 229.751C191.384 229.399 191.994 229.134 192.676 228.955C193.366 228.776 194.088 228.65 194.844 228.578C195.732 228.485 196.448 228.399 196.992 228.319C197.535 228.233 197.93 228.107 198.175 227.941C198.42 227.775 198.543 227.53 198.543 227.205V227.146C198.543 226.516 198.344 226.029 197.946 225.684C197.555 225.339 196.998 225.167 196.276 225.167C195.513 225.167 194.907 225.336 194.456 225.674C194.005 226.006 193.707 226.423 193.561 226.927L189.644 226.609C189.843 225.681 190.234 224.879 190.817 224.203C191.4 223.52 192.153 222.996 193.074 222.631C194.002 222.26 195.076 222.075 196.296 222.075C197.144 222.075 197.956 222.174 198.732 222.373C199.514 222.572 200.207 222.88 200.81 223.298C201.42 223.715 201.9 224.252 202.252 224.908C202.603 225.558 202.779 226.337 202.779 227.245V237.546H198.762V235.428H198.642C198.397 235.906 198.069 236.327 197.658 236.691C197.247 237.049 196.753 237.331 196.176 237.536C195.6 237.735 194.933 237.835 194.178 237.835ZM195.391 234.911C196.014 234.911 196.564 234.789 197.041 234.543C197.519 234.292 197.893 233.953 198.165 233.529C198.437 233.105 198.573 232.624 198.573 232.087V230.467C198.44 230.553 198.258 230.632 198.026 230.705C197.8 230.772 197.545 230.835 197.26 230.894C196.975 230.947 196.69 230.997 196.405 231.043C196.12 231.083 195.861 231.12 195.629 231.153C195.132 231.226 194.698 231.342 194.327 231.501C193.956 231.66 193.667 231.875 193.462 232.147C193.256 232.412 193.154 232.744 193.154 233.141C193.154 233.718 193.362 234.159 193.78 234.464C194.204 234.762 194.741 234.911 195.391 234.911ZM214.188 222.274V225.455H204.991V222.274H214.188ZM207.079 218.614H211.315V232.853C211.315 233.244 211.375 233.549 211.494 233.768C211.613 233.98 211.779 234.129 211.991 234.215C212.21 234.301 212.462 234.345 212.747 234.345C212.946 234.345 213.144 234.328 213.343 234.295C213.542 234.255 213.695 234.225 213.801 234.205L214.467 237.357C214.255 237.424 213.956 237.5 213.572 237.586C213.187 237.679 212.72 237.735 212.17 237.755C211.149 237.795 210.254 237.659 209.485 237.347C208.723 237.036 208.13 236.552 207.705 235.896C207.281 235.239 207.072 234.411 207.079 233.41V218.614ZM216.948 237.546V222.274H221.183V237.546H216.948ZM219.076 220.305C218.446 220.305 217.906 220.096 217.455 219.678C217.011 219.254 216.789 218.747 216.789 218.157C216.789 217.574 217.011 217.073 217.455 216.656C217.906 216.231 218.446 216.019 219.076 216.019C219.705 216.019 220.242 216.231 220.686 216.656C221.137 217.073 221.362 217.574 221.362 218.157C221.362 218.747 221.137 219.254 220.686 219.678C220.242 220.096 219.705 220.305 219.076 220.305ZM231.477 237.845C229.933 237.845 228.597 237.516 227.47 236.86C226.35 236.197 225.485 235.276 224.875 234.096C224.265 232.909 223.96 231.534 223.96 229.97C223.96 228.392 224.265 227.013 224.875 225.833C225.485 224.647 226.35 223.725 227.47 223.069C228.597 222.406 229.933 222.075 231.477 222.075C233.022 222.075 234.354 222.406 235.474 223.069C236.601 223.725 237.47 224.647 238.079 225.833C238.689 227.013 238.994 228.392 238.994 229.97C238.994 231.534 238.689 232.909 238.079 234.096C237.47 235.276 236.601 236.197 235.474 236.86C234.354 237.516 233.022 237.845 231.477 237.845ZM231.497 234.563C232.2 234.563 232.786 234.364 233.257 233.967C233.728 233.562 234.082 233.012 234.321 232.316C234.566 231.62 234.689 230.828 234.689 229.94C234.689 229.051 234.566 228.259 234.321 227.563C234.082 226.867 233.728 226.317 233.257 225.913C232.786 225.508 232.2 225.306 231.497 225.306C230.788 225.306 230.191 225.508 229.707 225.913C229.23 226.317 228.869 226.867 228.623 227.563C228.385 228.259 228.265 229.051 228.265 229.94C228.265 230.828 228.385 231.62 228.623 232.316C228.869 233.012 229.23 233.562 229.707 233.967C230.191 234.364 230.788 234.563 231.497 234.563ZM245.984 228.717V237.546H241.748V222.274H245.785V224.968H245.964C246.302 224.08 246.869 223.377 247.665 222.86C248.46 222.337 249.425 222.075 250.558 222.075C251.619 222.075 252.543 222.307 253.332 222.771C254.121 223.235 254.734 223.898 255.172 224.759C255.609 225.614 255.828 226.635 255.828 227.822V237.546H251.592V228.578C251.599 227.643 251.36 226.914 250.876 226.39C250.392 225.86 249.726 225.595 248.878 225.595C248.308 225.595 247.804 225.717 247.366 225.962C246.935 226.208 246.597 226.566 246.352 227.036C246.114 227.5 245.991 228.06 245.984 228.717ZM271.874 226.629L267.996 226.867C267.93 226.536 267.787 226.238 267.568 225.972C267.35 225.701 267.061 225.485 266.703 225.326C266.352 225.16 265.931 225.078 265.441 225.078C264.784 225.078 264.231 225.217 263.78 225.495C263.329 225.767 263.104 226.131 263.104 226.589C263.104 226.953 263.25 227.262 263.541 227.514C263.833 227.765 264.334 227.968 265.043 228.12L267.807 228.677C269.292 228.982 270.399 229.472 271.128 230.149C271.857 230.825 272.222 231.713 272.222 232.813C272.222 233.814 271.927 234.693 271.337 235.448C270.754 236.204 269.951 236.794 268.931 237.218C267.916 237.636 266.746 237.845 265.421 237.845C263.399 237.845 261.788 237.424 260.588 236.582C259.395 235.733 258.696 234.58 258.49 233.122L262.656 232.903C262.782 233.519 263.087 233.99 263.571 234.315C264.055 234.633 264.675 234.792 265.431 234.792C266.173 234.792 266.77 234.649 267.22 234.364C267.678 234.073 267.91 233.698 267.916 233.241C267.91 232.856 267.747 232.542 267.429 232.296C267.111 232.044 266.62 231.852 265.958 231.72L263.313 231.193C261.821 230.894 260.711 230.377 259.982 229.641C259.259 228.906 258.898 227.968 258.898 226.828C258.898 225.846 259.163 225.001 259.693 224.292C260.23 223.583 260.983 223.036 261.951 222.651C262.925 222.267 264.065 222.075 265.371 222.075C267.3 222.075 268.818 222.482 269.925 223.298C271.039 224.113 271.688 225.223 271.874 226.629ZM279.125 228.717V237.546H274.889V217.183H279.006V224.968H279.185C279.529 224.067 280.086 223.361 280.855 222.85C281.624 222.333 282.588 222.075 283.748 222.075C284.809 222.075 285.734 222.307 286.523 222.771C287.318 223.228 287.935 223.888 288.372 224.749C288.816 225.605 289.035 226.629 289.028 227.822V237.546H284.792V228.578C284.799 227.636 284.56 226.904 284.077 226.38C283.599 225.856 282.93 225.595 282.068 225.595C281.491 225.595 280.981 225.717 280.537 225.962C280.099 226.208 279.755 226.566 279.503 227.036C279.257 227.5 279.131 228.06 279.125 228.717ZM292.362 237.546V222.274H296.598V237.546H292.362ZM294.49 220.305C293.86 220.305 293.32 220.096 292.869 219.678C292.425 219.254 292.203 218.747 292.203 218.157C292.203 217.574 292.425 217.073 292.869 216.656C293.32 216.231 293.86 216.019 294.49 216.019C295.119 216.019 295.656 216.231 296.1 216.656C296.551 217.073 296.777 217.574 296.777 218.157C296.777 218.747 296.551 219.254 296.1 219.678C295.656 220.096 295.119 220.305 294.49 220.305ZM299.991 243.274V222.274H304.167V224.839H304.356C304.541 224.428 304.81 224.01 305.161 223.586C305.519 223.155 305.983 222.797 306.553 222.512C307.13 222.221 307.846 222.075 308.701 222.075C309.814 222.075 310.842 222.366 311.783 222.95C312.725 223.526 313.477 224.398 314.04 225.565C314.604 226.725 314.886 228.18 314.886 229.93C314.886 231.633 314.61 233.072 314.06 234.245C313.517 235.412 312.774 236.297 311.833 236.9C310.898 237.497 309.851 237.795 308.691 237.795C307.869 237.795 307.17 237.659 306.593 237.387C306.023 237.115 305.556 236.774 305.191 236.363C304.826 235.945 304.548 235.524 304.356 235.1H304.226V243.274H299.991ZM304.137 229.91C304.137 230.818 304.263 231.61 304.515 232.286C304.767 232.962 305.131 233.489 305.609 233.867C306.086 234.238 306.666 234.424 307.349 234.424C308.038 234.424 308.621 234.235 309.099 233.857C309.576 233.473 309.937 232.943 310.182 232.266C310.434 231.584 310.56 230.798 310.56 229.91C310.56 229.028 310.438 228.253 310.192 227.583C309.947 226.914 309.586 226.39 309.109 226.012C308.631 225.634 308.045 225.445 307.349 225.445C306.659 225.445 306.076 225.628 305.599 225.992C305.128 226.357 304.767 226.874 304.515 227.543C304.263 228.213 304.137 229.002 304.137 229.91ZM330.417 226.629L326.539 226.867C326.473 226.536 326.33 226.238 326.111 225.972C325.893 225.701 325.604 225.485 325.246 225.326C324.895 225.16 324.474 225.078 323.984 225.078C323.327 225.078 322.774 225.217 322.323 225.495C321.872 225.767 321.647 226.131 321.647 226.589C321.647 226.953 321.793 227.262 322.084 227.514C322.376 227.765 322.877 227.968 323.586 228.12L326.35 228.677C327.835 228.982 328.942 229.472 329.671 230.149C330.4 230.825 330.765 231.713 330.765 232.813C330.765 233.814 330.47 234.693 329.88 235.448C329.297 236.204 328.494 236.794 327.474 237.218C326.459 237.636 325.289 237.845 323.964 237.845C321.942 237.845 320.331 237.424 319.131 236.582C317.938 235.733 317.239 234.58 317.033 233.122L321.199 232.903C321.325 233.519 321.63 233.99 322.114 234.315C322.598 234.633 323.218 234.792 323.974 234.792C324.716 234.792 325.313 234.649 325.763 234.364C326.221 234.073 326.453 233.698 326.459 233.241C326.453 232.856 326.29 232.542 325.972 232.296C325.654 232.044 325.163 231.852 324.501 231.72L321.856 231.193C320.364 230.894 319.254 230.377 318.525 229.641C317.802 228.906 317.441 227.968 317.441 226.828C317.441 225.846 317.706 225.001 318.236 224.292C318.773 223.583 319.526 223.036 320.493 222.651C321.468 222.267 322.608 222.075 323.914 222.075C325.843 222.075 327.361 222.482 328.468 223.298C329.582 224.113 330.231 225.223 330.417 226.629Z" fill="white"/>
<rect x="149.591" y="299.181" width="231.76" height="54.7797" rx="9.4811" fill="#C28840"/>
<path d="M177.016 316.207H182.326L187.934 329.889H188.172L193.78 316.207H199.09V336.571H194.914V323.317H194.745L189.475 336.471H186.631L181.361 323.267H181.192V336.571H177.016V316.207ZM202.558 336.571V321.298H206.794V336.571H202.558ZM204.686 319.329C204.056 319.329 203.516 319.121 203.065 318.703C202.621 318.279 202.399 317.772 202.399 317.182C202.399 316.598 202.621 316.098 203.065 315.68C203.516 315.256 204.056 315.044 204.686 315.044C205.315 315.044 205.852 315.256 206.296 315.68C206.747 316.098 206.973 316.598 206.973 317.182C206.973 317.772 206.747 318.279 206.296 318.703C205.852 319.121 205.315 319.329 204.686 319.329ZM214.422 327.741V336.571H210.187V321.298H214.224V323.993H214.403C214.741 323.105 215.307 322.402 216.103 321.885C216.898 321.361 217.863 321.099 218.996 321.099C220.057 321.099 220.982 321.331 221.77 321.795C222.559 322.259 223.172 322.922 223.61 323.784C224.047 324.639 224.266 325.66 224.266 326.846V336.571H220.03V327.602C220.037 326.668 219.798 325.938 219.315 325.415C218.831 324.884 218.164 324.619 217.316 324.619C216.746 324.619 216.242 324.742 215.805 324.987C215.374 325.232 215.036 325.59 214.79 326.061C214.552 326.525 214.429 327.085 214.422 327.741ZM233.232 336.82C232.072 336.82 231.022 336.521 230.081 335.925C229.146 335.321 228.403 334.436 227.853 333.27C227.31 332.096 227.038 330.658 227.038 328.954C227.038 327.204 227.32 325.749 227.883 324.589C228.447 323.423 229.196 322.551 230.13 321.974C231.072 321.391 232.102 321.099 233.223 321.099C234.078 321.099 234.79 321.245 235.36 321.537C235.937 321.822 236.401 322.18 236.752 322.611C237.11 323.035 237.382 323.453 237.568 323.864H237.697V316.207H241.923V336.571H237.747V334.125H237.568C237.369 334.549 237.087 334.97 236.723 335.388C236.365 335.799 235.897 336.14 235.321 336.412C234.75 336.684 234.054 336.82 233.232 336.82ZM234.575 333.449C235.258 333.449 235.834 333.263 236.305 332.892C236.782 332.514 237.147 331.987 237.399 331.311C237.657 330.635 237.786 329.843 237.786 328.935C237.786 328.026 237.661 327.238 237.409 326.568C237.157 325.899 236.792 325.382 236.315 325.017C235.838 324.652 235.258 324.47 234.575 324.47C233.879 324.47 233.292 324.659 232.815 325.037C232.338 325.415 231.976 325.938 231.731 326.608C231.486 327.277 231.363 328.053 231.363 328.935C231.363 329.823 231.486 330.608 231.731 331.291C231.983 331.967 232.344 332.498 232.815 332.882C233.292 333.26 233.879 333.449 234.575 333.449ZM253.618 321.298V324.48H244.192V321.298H253.618ZM246.35 336.571V320.195C246.35 319.087 246.565 318.169 246.996 317.44C247.434 316.711 248.03 316.164 248.786 315.8C249.542 315.435 250.4 315.253 251.361 315.253C252.011 315.253 252.604 315.302 253.141 315.402C253.685 315.501 254.089 315.591 254.354 315.67L253.599 318.852C253.433 318.799 253.227 318.749 252.982 318.703C252.743 318.657 252.498 318.633 252.246 318.633C251.623 318.633 251.189 318.779 250.944 319.071C250.699 319.356 250.576 319.757 250.576 320.274V336.571H246.35ZM266 330.068V321.298H270.236V336.571H266.169V333.797H266.01C265.665 334.692 265.092 335.411 264.29 335.954C263.495 336.498 262.523 336.77 261.377 336.77C260.356 336.77 259.458 336.538 258.682 336.074C257.906 335.61 257.3 334.95 256.862 334.095C256.432 333.24 256.213 332.216 256.206 331.023V321.298H260.442V330.267C260.449 331.168 260.691 331.881 261.168 332.405C261.645 332.928 262.285 333.19 263.087 333.19C263.597 333.19 264.075 333.074 264.519 332.842C264.963 332.604 265.321 332.252 265.593 331.788C265.871 331.324 266.007 330.751 266 330.068ZM277.86 316.207V336.571H273.624V316.207H277.86ZM285.489 327.741V336.571H281.253V321.298H285.29V323.993H285.469C285.807 323.105 286.374 322.402 287.169 321.885C287.965 321.361 288.929 321.099 290.063 321.099C291.123 321.099 292.048 321.331 292.837 321.795C293.626 322.259 294.239 322.922 294.676 323.784C295.114 324.639 295.333 325.66 295.333 326.846V336.571H291.097V327.602C291.103 326.668 290.865 325.938 290.381 325.415C289.897 324.884 289.231 324.619 288.382 324.619C287.812 324.619 287.308 324.742 286.871 324.987C286.44 325.232 286.102 325.59 285.857 326.061C285.618 326.525 285.496 327.085 285.489 327.741ZM305.631 336.869C304.06 336.869 302.708 336.551 301.574 335.915C300.448 335.272 299.579 334.364 298.969 333.19C298.36 332.01 298.055 330.615 298.055 329.004C298.055 327.433 298.36 326.054 298.969 324.868C299.579 323.681 300.438 322.757 301.545 322.094C302.658 321.431 303.964 321.099 305.462 321.099C306.47 321.099 307.408 321.262 308.276 321.587C309.151 321.905 309.913 322.385 310.563 323.028C311.219 323.671 311.73 324.48 312.094 325.454C312.459 326.422 312.641 327.556 312.641 328.855V330.018H299.745V327.393H308.654C308.654 326.784 308.521 326.243 308.256 325.773C307.991 325.302 307.623 324.934 307.153 324.669C306.689 324.397 306.148 324.261 305.532 324.261C304.889 324.261 304.319 324.41 303.822 324.709C303.331 325 302.947 325.395 302.668 325.892C302.39 326.382 302.247 326.929 302.241 327.533V330.028C302.241 330.784 302.38 331.437 302.658 331.987C302.943 332.537 303.344 332.962 303.861 333.26C304.378 333.558 304.992 333.707 305.701 333.707C306.172 333.707 306.602 333.641 306.993 333.508C307.385 333.376 307.719 333.177 307.998 332.912C308.276 332.647 308.488 332.322 308.634 331.937L312.552 332.196C312.353 333.137 311.945 333.959 311.329 334.662C310.719 335.358 309.93 335.901 308.962 336.293C308.001 336.677 306.891 336.869 305.631 336.869ZM328.113 325.653L324.235 325.892C324.169 325.561 324.026 325.262 323.807 324.997C323.589 324.725 323.3 324.51 322.942 324.351C322.591 324.185 322.17 324.102 321.68 324.102C321.023 324.102 320.47 324.241 320.019 324.52C319.568 324.792 319.343 325.156 319.343 325.614C319.343 325.978 319.489 326.286 319.78 326.538C320.072 326.79 320.573 326.992 321.282 327.145L324.046 327.702C325.531 328.007 326.638 328.497 327.367 329.173C328.096 329.849 328.461 330.738 328.461 331.838C328.461 332.839 328.166 333.717 327.576 334.473C326.993 335.229 326.19 335.819 325.17 336.243C324.155 336.66 322.985 336.869 321.66 336.869C319.638 336.869 318.027 336.448 316.827 335.606C315.634 334.758 314.935 333.605 314.729 332.146L318.895 331.927C319.021 332.544 319.326 333.015 319.81 333.339C320.294 333.658 320.914 333.817 321.67 333.817C322.412 333.817 323.009 333.674 323.459 333.389C323.917 333.097 324.149 332.723 324.155 332.266C324.149 331.881 323.986 331.566 323.668 331.321C323.35 331.069 322.86 330.877 322.197 330.744L319.552 330.217C318.06 329.919 316.95 329.402 316.221 328.666C315.498 327.93 315.137 326.992 315.137 325.852C315.137 324.871 315.402 324.026 315.932 323.317C316.469 322.607 317.222 322.061 318.19 321.676C319.164 321.292 320.304 321.099 321.61 321.099C323.539 321.099 325.057 321.507 326.164 322.322C327.278 323.138 327.927 324.248 328.113 325.653ZM343.835 325.653L339.958 325.892C339.891 325.561 339.749 325.262 339.53 324.997C339.311 324.725 339.023 324.51 338.665 324.351C338.314 324.185 337.893 324.102 337.402 324.102C336.746 324.102 336.192 324.241 335.742 324.52C335.291 324.792 335.066 325.156 335.066 325.614C335.066 325.978 335.211 326.286 335.503 326.538C335.795 326.79 336.295 326.992 337.005 327.145L339.769 327.702C341.254 328.007 342.361 328.497 343.09 329.173C343.819 329.849 344.183 330.738 344.183 331.838C344.183 332.839 343.889 333.717 343.299 334.473C342.715 335.229 341.913 335.819 340.892 336.243C339.878 336.66 338.708 336.869 337.382 336.869C335.361 336.869 333.75 336.448 332.55 335.606C331.357 334.758 330.657 333.605 330.452 332.146L334.618 331.927C334.744 332.544 335.049 333.015 335.533 333.339C336.017 333.658 336.637 333.817 337.392 333.817C338.135 333.817 338.731 333.674 339.182 333.389C339.639 333.097 339.871 332.723 339.878 332.266C339.871 331.881 339.709 331.566 339.391 331.321C339.073 331.069 338.582 330.877 337.919 330.744L335.274 330.217C333.783 329.919 332.673 329.402 331.943 328.666C331.221 327.93 330.86 326.992 330.86 325.852C330.86 324.871 331.125 324.026 331.655 323.317C332.192 322.607 332.944 322.061 333.912 321.676C334.887 321.292 336.027 321.099 337.333 321.099C339.262 321.099 340.78 321.507 341.887 322.322C343 323.138 343.65 324.248 343.835 325.653Z" fill="white"/>
<rect x="104" y="103.573" width="277.059" height="54.7797" rx="9.4811" fill="#C28840"/>
<path d="M143.999 126.456C143.919 125.654 143.578 125.03 142.974 124.586C142.371 124.142 141.553 123.92 140.519 123.92C139.816 123.92 139.223 124.02 138.739 124.218C138.255 124.411 137.884 124.679 137.625 125.024C137.373 125.369 137.247 125.76 137.247 126.197C137.234 126.562 137.31 126.88 137.476 127.152C137.648 127.423 137.884 127.659 138.182 127.858C138.48 128.05 138.825 128.219 139.216 128.365C139.607 128.504 140.025 128.623 140.469 128.723L142.298 129.16C143.187 129.359 144.002 129.624 144.744 129.956C145.487 130.287 146.13 130.695 146.673 131.179C147.217 131.663 147.638 132.233 147.936 132.889C148.241 133.545 148.397 134.298 148.403 135.146C148.397 136.392 148.079 137.473 147.449 138.387C146.826 139.296 145.924 140.002 144.744 140.505C143.571 141.003 142.156 141.251 140.499 141.251C138.855 141.251 137.423 140.999 136.203 140.495C134.99 139.992 134.042 139.246 133.359 138.258C132.683 137.264 132.329 136.034 132.296 134.569H136.462C136.508 135.252 136.704 135.822 137.048 136.28C137.4 136.73 137.867 137.072 138.45 137.304C139.04 137.529 139.707 137.642 140.449 137.642C141.178 137.642 141.811 137.536 142.348 137.324C142.892 137.111 143.313 136.816 143.611 136.439C143.909 136.061 144.058 135.627 144.058 135.136C144.058 134.679 143.922 134.294 143.651 133.983C143.385 133.671 142.994 133.406 142.477 133.187C141.967 132.968 141.341 132.77 140.598 132.591L138.381 132.034C136.664 131.616 135.308 130.963 134.314 130.075C133.32 129.187 132.826 127.99 132.832 126.485C132.826 125.253 133.154 124.175 133.817 123.254C134.486 122.333 135.404 121.613 136.571 121.096C137.738 120.579 139.064 120.321 140.548 120.321C142.06 120.321 143.379 120.579 144.506 121.096C145.639 121.613 146.521 122.333 147.151 123.254C147.78 124.175 148.105 125.243 148.125 126.456H143.999ZM158.18 141.261C156.609 141.261 155.257 140.943 154.123 140.307C152.996 139.664 152.128 138.755 151.518 137.582C150.908 136.402 150.603 135.007 150.603 133.396C150.603 131.825 150.908 130.446 151.518 129.26C152.128 128.073 152.986 127.148 154.093 126.485C155.207 125.823 156.513 125.491 158.011 125.491C159.019 125.491 159.957 125.654 160.825 125.978C161.7 126.297 162.462 126.777 163.112 127.42C163.768 128.063 164.279 128.872 164.643 129.846C165.008 130.814 165.19 131.948 165.19 133.247V134.41H152.294V131.785H161.203C161.203 131.175 161.07 130.635 160.805 130.164C160.54 129.694 160.172 129.326 159.701 129.061C159.237 128.789 158.697 128.653 158.081 128.653C157.438 128.653 156.868 128.802 156.37 129.101C155.88 129.392 155.495 129.787 155.217 130.284C154.939 130.774 154.796 131.321 154.789 131.924V134.42C154.789 135.176 154.929 135.829 155.207 136.379C155.492 136.929 155.893 137.353 156.41 137.652C156.927 137.95 157.54 138.099 158.25 138.099C158.72 138.099 159.151 138.033 159.542 137.9C159.933 137.768 160.268 137.569 160.547 137.304C160.825 137.039 161.037 136.714 161.183 136.329L165.101 136.588C164.902 137.529 164.494 138.351 163.878 139.054C163.268 139.75 162.479 140.293 161.511 140.684C160.55 141.069 159.44 141.261 158.18 141.261ZM172.19 120.599V140.963H167.954V120.599H172.19ZM183.796 125.69V128.872H174.37V125.69H183.796ZM176.528 140.963V124.586C176.528 123.479 176.743 122.561 177.174 121.832C177.612 121.103 178.208 120.556 178.964 120.191C179.72 119.827 180.578 119.645 181.539 119.645C182.189 119.645 182.782 119.694 183.319 119.794C183.863 119.893 184.267 119.983 184.532 120.062L183.776 123.244C183.611 123.191 183.405 123.141 183.16 123.095C182.921 123.048 182.676 123.025 182.424 123.025C181.801 123.025 181.367 123.171 181.122 123.463C180.876 123.748 180.754 124.149 180.754 124.666V140.963H176.528ZM196.454 140.963H191.84L198.87 120.599H204.418L211.438 140.963H206.825L201.724 125.253H201.565L196.454 140.963ZM196.166 132.959H207.063V136.319H196.166V132.959ZM214.908 140.963L210.752 125.69H215.038L217.404 135.951H217.543L220.009 125.69H224.215L226.721 135.892H226.85L229.177 125.69H233.452L229.306 140.963H224.822L222.197 131.358H222.008L219.383 140.963H214.908ZM240.067 141.251C239.093 141.251 238.224 141.082 237.462 140.744C236.7 140.399 236.097 139.892 235.652 139.223C235.215 138.547 234.996 137.705 234.996 136.697C234.996 135.849 235.152 135.136 235.463 134.559C235.775 133.983 236.199 133.519 236.736 133.167C237.273 132.816 237.883 132.551 238.566 132.372C239.255 132.193 239.978 132.067 240.733 131.994C241.622 131.901 242.338 131.815 242.881 131.735C243.425 131.649 243.819 131.523 244.064 131.358C244.31 131.192 244.432 130.947 244.432 130.622V130.562C244.432 129.932 244.233 129.445 243.836 129.101C243.445 128.756 242.888 128.584 242.165 128.584C241.403 128.584 240.796 128.753 240.346 129.091C239.895 129.422 239.597 129.84 239.451 130.343L235.533 130.025C235.732 129.097 236.123 128.295 236.706 127.619C237.29 126.936 238.042 126.413 238.963 126.048C239.892 125.677 240.965 125.491 242.185 125.491C243.034 125.491 243.846 125.591 244.621 125.789C245.403 125.988 246.096 126.297 246.699 126.714C247.309 127.132 247.79 127.669 248.141 128.325C248.492 128.975 248.668 129.753 248.668 130.662V140.963H244.651V138.845H244.532C244.286 139.322 243.958 139.743 243.547 140.108C243.136 140.466 242.642 140.747 242.066 140.953C241.489 141.152 240.823 141.251 240.067 141.251ZM241.28 138.328C241.903 138.328 242.454 138.205 242.931 137.96C243.408 137.708 243.783 137.37 244.054 136.946C244.326 136.521 244.462 136.041 244.462 135.504V133.883C244.329 133.969 244.147 134.049 243.915 134.122C243.69 134.188 243.435 134.251 243.15 134.311C242.865 134.364 242.579 134.414 242.294 134.46C242.009 134.5 241.751 134.536 241.519 134.569C241.022 134.642 240.588 134.758 240.216 134.917C239.845 135.076 239.557 135.292 239.351 135.564C239.146 135.829 239.043 136.16 239.043 136.558C239.043 137.135 239.252 137.575 239.669 137.88C240.094 138.179 240.631 138.328 241.28 138.328ZM251.954 140.963V125.69H256.061V128.355H256.22C256.498 127.407 256.966 126.691 257.622 126.207C258.278 125.717 259.034 125.471 259.889 125.471C260.101 125.471 260.33 125.485 260.575 125.511C260.82 125.538 261.036 125.574 261.221 125.62V129.379C261.022 129.319 260.747 129.266 260.396 129.22C260.045 129.173 259.723 129.15 259.432 129.15C258.808 129.15 258.252 129.286 257.761 129.558C257.277 129.823 256.893 130.194 256.608 130.672C256.329 131.149 256.19 131.699 256.19 132.322V140.963H251.954ZM269.661 141.261C268.09 141.261 266.737 140.943 265.604 140.307C264.477 139.664 263.608 138.755 262.999 137.582C262.389 136.402 262.084 135.007 262.084 133.396C262.084 131.825 262.389 130.446 262.999 129.26C263.608 128.073 264.467 127.148 265.574 126.485C266.688 125.823 267.993 125.491 269.492 125.491C270.499 125.491 271.437 125.654 272.305 125.978C273.18 126.297 273.943 126.777 274.592 127.42C275.249 128.063 275.759 128.872 276.124 129.846C276.488 130.814 276.671 131.948 276.671 133.247V134.41H263.774V131.785H272.683C272.683 131.175 272.551 130.635 272.286 130.164C272.02 129.694 271.653 129.326 271.182 129.061C270.718 128.789 270.178 128.653 269.561 128.653C268.918 128.653 268.348 128.802 267.851 129.101C267.36 129.392 266.976 129.787 266.698 130.284C266.419 130.774 266.277 131.321 266.27 131.924V134.42C266.27 135.176 266.409 135.829 266.688 136.379C266.973 136.929 267.374 137.353 267.891 137.652C268.408 137.95 269.021 138.099 269.73 138.099C270.201 138.099 270.632 138.033 271.023 137.9C271.414 137.768 271.749 137.569 272.027 137.304C272.305 137.039 272.518 136.714 272.663 136.329L276.581 136.588C276.382 137.529 275.974 138.351 275.358 139.054C274.748 139.75 273.959 140.293 272.992 140.684C272.03 141.069 270.92 141.261 269.661 141.261ZM283.671 132.133V140.963H279.435V125.69H283.472V128.385H283.651C283.989 127.496 284.555 126.794 285.351 126.277C286.146 125.753 287.111 125.491 288.244 125.491C289.305 125.491 290.23 125.723 291.019 126.187C291.807 126.651 292.421 127.314 292.858 128.176C293.296 129.031 293.514 130.052 293.514 131.238V140.963H289.278V131.994C289.285 131.059 289.046 130.33 288.563 129.807C288.079 129.276 287.412 129.011 286.564 129.011C285.994 129.011 285.49 129.134 285.053 129.379C284.622 129.624 284.284 129.982 284.038 130.453C283.8 130.917 283.677 131.477 283.671 132.133ZM303.813 141.261C302.242 141.261 300.89 140.943 299.756 140.307C298.629 139.664 297.761 138.755 297.151 137.582C296.541 136.402 296.236 135.007 296.236 133.396C296.236 131.825 296.541 130.446 297.151 129.26C297.761 128.073 298.619 127.148 299.726 126.485C300.84 125.823 302.146 125.491 303.644 125.491C304.651 125.491 305.589 125.654 306.458 125.978C307.333 126.297 308.095 126.777 308.745 127.42C309.401 128.063 309.911 128.872 310.276 129.846C310.641 130.814 310.823 131.948 310.823 133.247V134.41H297.927V131.785H306.836C306.836 131.175 306.703 130.635 306.438 130.164C306.173 129.694 305.805 129.326 305.334 129.061C304.87 128.789 304.33 128.653 303.713 128.653C303.07 128.653 302.5 128.802 302.003 129.101C301.513 129.392 301.128 129.787 300.85 130.284C300.571 130.774 300.429 131.321 300.422 131.924V134.42C300.422 135.176 300.562 135.829 300.84 136.379C301.125 136.929 301.526 137.353 302.043 137.652C302.56 137.95 303.173 138.099 303.883 138.099C304.353 138.099 304.784 138.033 305.175 137.9C305.566 137.768 305.901 137.569 306.179 137.304C306.458 137.039 306.67 136.714 306.816 136.329L310.733 136.588C310.535 137.529 310.127 138.351 309.51 139.054C308.901 139.75 308.112 140.293 307.144 140.684C306.183 141.069 305.072 141.261 303.813 141.261ZM326.294 130.045L322.417 130.284C322.35 129.952 322.208 129.654 321.989 129.389C321.77 129.117 321.482 128.902 321.124 128.743C320.773 128.577 320.352 128.494 319.861 128.494C319.205 128.494 318.651 128.633 318.201 128.912C317.75 129.183 317.525 129.548 317.525 130.005C317.525 130.37 317.67 130.678 317.962 130.93C318.254 131.182 318.754 131.384 319.463 131.537L322.228 132.093C323.713 132.398 324.82 132.889 325.549 133.565C326.278 134.241 326.642 135.129 326.642 136.23C326.642 137.231 326.347 138.109 325.758 138.865C325.174 139.62 324.372 140.21 323.351 140.635C322.337 141.052 321.167 141.261 319.841 141.261C317.82 141.261 316.209 140.84 315.009 139.998C313.816 139.15 313.116 137.996 312.911 136.538L317.077 136.319C317.203 136.936 317.508 137.406 317.992 137.731C318.476 138.049 319.096 138.209 319.851 138.209C320.594 138.209 321.19 138.066 321.641 137.781C322.098 137.489 322.33 137.115 322.337 136.657C322.33 136.273 322.168 135.958 321.85 135.713C321.532 135.461 321.041 135.269 320.378 135.136L317.733 134.609C316.242 134.311 315.132 133.794 314.402 133.058C313.68 132.322 313.319 131.384 313.319 130.244C313.319 129.263 313.584 128.418 314.114 127.709C314.651 126.999 315.403 126.452 316.371 126.068C317.346 125.683 318.486 125.491 319.792 125.491C321.721 125.491 323.239 125.899 324.346 126.714C325.459 127.53 326.109 128.64 326.294 130.045ZM342.017 130.045L338.139 130.284C338.073 129.952 337.93 129.654 337.712 129.389C337.493 129.117 337.205 128.902 336.847 128.743C336.495 128.577 336.074 128.494 335.584 128.494C334.928 128.494 334.374 128.633 333.923 128.912C333.473 129.183 333.247 129.548 333.247 130.005C333.247 130.37 333.393 130.678 333.685 130.93C333.976 131.182 334.477 131.384 335.186 131.537L337.95 132.093C339.435 132.398 340.542 132.889 341.271 133.565C342.001 134.241 342.365 135.129 342.365 136.23C342.365 137.231 342.07 138.109 341.48 138.865C340.897 139.62 340.095 140.21 339.074 140.635C338.06 141.052 336.89 141.261 335.564 141.261C333.542 141.261 331.931 140.84 330.732 139.998C329.538 139.15 328.839 137.996 328.634 136.538L332.8 136.319C332.926 136.936 333.231 137.406 333.715 137.731C334.198 138.049 334.818 138.209 335.574 138.209C336.316 138.209 336.913 138.066 337.364 137.781C337.821 137.489 338.053 137.115 338.06 136.657C338.053 136.273 337.891 135.958 337.573 135.713C337.254 135.461 336.764 135.269 336.101 135.136L333.456 134.609C331.965 134.311 330.854 133.794 330.125 133.058C329.403 132.322 329.041 131.384 329.041 130.244C329.041 129.263 329.306 128.418 329.837 127.709C330.374 126.999 331.126 126.452 332.094 126.068C333.068 125.683 334.208 125.491 335.514 125.491C337.443 125.491 338.961 125.899 340.068 126.714C341.182 127.53 341.832 128.64 342.017 130.045Z" fill="white"/>
<rect x="267.578" width="173.82" height="54.7797" rx="9.4811" fill="#C28840"/>
<path d="M304.92 22.8827C304.84 22.0806 304.499 21.4575 303.896 21.0133C303.292 20.5692 302.474 20.3472 301.44 20.3472C300.737 20.3472 300.144 20.4466 299.66 20.6455C299.176 20.8377 298.805 21.1062 298.546 21.4508C298.294 21.7955 298.168 22.1866 298.168 22.6241C298.155 22.9887 298.231 23.3069 298.397 23.5787C298.569 23.8505 298.805 24.0858 299.103 24.2847C299.401 24.4769 299.746 24.6459 300.137 24.7918C300.528 24.931 300.946 25.0503 301.39 25.1497L303.22 25.5872C304.108 25.7861 304.923 26.0512 305.666 26.3827C306.408 26.7141 307.051 27.1218 307.595 27.6057C308.138 28.0896 308.559 28.6597 308.857 29.3159C309.162 29.9722 309.318 30.7245 309.325 31.573C309.318 32.8192 309 33.8997 308.37 34.8145C307.747 35.7226 306.845 36.4286 305.666 36.9324C304.492 37.4295 303.077 37.6781 301.42 37.6781C299.776 37.6781 298.344 37.4262 297.124 36.9224C295.911 36.4187 294.963 35.6729 294.281 34.6852C293.604 33.6909 293.25 32.4613 293.217 30.9963H297.383C297.429 31.6791 297.625 32.2491 297.97 32.7065C298.321 33.1573 298.788 33.4987 299.371 33.7307C299.961 33.9561 300.628 34.0687 301.37 34.0687C302.099 34.0687 302.732 33.9627 303.269 33.7506C303.813 33.5384 304.234 33.2435 304.532 32.8656C304.83 32.4878 304.979 32.0536 304.979 31.5631C304.979 31.1057 304.844 30.7212 304.572 30.4097C304.307 30.0981 303.916 29.833 303.398 29.6142C302.888 29.3955 302.262 29.1966 301.519 29.0176L299.302 28.4608C297.585 28.0432 296.229 27.3902 295.235 26.502C294.241 25.6137 293.747 24.4172 293.754 22.9125C293.747 21.6795 294.075 20.6024 294.738 19.681C295.407 18.7596 296.326 18.0403 297.492 17.5233C298.659 17.0062 299.985 16.7477 301.47 16.7477C302.981 16.7477 304.3 17.0062 305.427 17.5233C306.56 18.0403 307.442 18.7596 308.072 19.681C308.702 20.6024 309.026 21.6696 309.046 22.8827H304.92ZM319.101 37.6881C317.53 37.6881 316.178 37.3699 315.044 36.7335C313.918 36.0905 313.049 35.1824 312.439 34.0091C311.829 32.8292 311.525 31.4338 311.525 29.823C311.525 28.252 311.829 26.8732 312.439 25.6866C313.049 24.5001 313.908 23.5754 315.015 22.9125C316.128 22.2496 317.434 21.9182 318.932 21.9182C319.94 21.9182 320.878 22.0806 321.746 22.4054C322.621 22.7236 323.383 23.2042 324.033 23.8472C324.689 24.4901 325.2 25.2989 325.564 26.2733C325.929 27.2411 326.111 28.3746 326.111 29.6739V30.8372H313.215V28.2122H322.124C322.124 27.6024 321.991 27.0621 321.726 26.5915C321.461 26.1208 321.093 25.7529 320.623 25.4878C320.159 25.216 319.618 25.0801 319.002 25.0801C318.359 25.0801 317.789 25.2293 317.292 25.5276C316.801 25.8192 316.417 26.2136 316.138 26.7108C315.86 27.2013 315.717 27.7482 315.711 28.3514V30.8472C315.711 31.6028 315.85 32.2558 316.128 32.806C316.413 33.3562 316.814 33.7804 317.331 34.0787C317.848 34.377 318.462 34.5261 319.171 34.5261C319.641 34.5261 320.072 34.4598 320.463 34.3273C320.855 34.1947 321.189 33.9958 321.468 33.7307C321.746 33.4655 321.958 33.1407 322.104 32.7562L326.022 33.0148C325.823 33.9561 325.415 34.778 324.799 35.4807C324.189 36.1767 323.4 36.7203 322.432 37.1114C321.471 37.4958 320.361 37.6881 319.101 37.6881ZM333.111 17.0261V37.3898H328.875V17.0261H333.111ZM344.717 22.117V25.2989H335.291V22.117H344.717ZM337.449 37.3898V21.0133C337.449 19.9063 337.664 18.9883 338.095 18.2591C338.533 17.5299 339.129 16.983 339.885 16.6185C340.641 16.2539 341.499 16.0716 342.46 16.0716C343.11 16.0716 343.703 16.1213 344.24 16.2207C344.784 16.3202 345.188 16.4097 345.453 16.4892L344.697 19.671C344.532 19.618 344.326 19.5683 344.081 19.5219C343.842 19.4755 343.597 19.4523 343.345 19.4523C342.722 19.4523 342.288 19.5981 342.043 19.8898C341.797 20.1748 341.675 20.5758 341.675 21.0929V37.3898H337.449ZM371.832 24.1554H367.477C367.398 23.5919 367.235 23.0915 366.99 22.654C366.745 22.2098 366.43 21.832 366.045 21.5205C365.661 21.2089 365.217 20.9703 364.713 20.8045C364.216 20.6388 363.676 20.556 363.092 20.556C362.038 20.556 361.12 20.8178 360.338 21.3415C359.556 21.8585 358.949 22.6142 358.519 23.6085C358.088 24.5962 357.872 25.796 357.872 27.208C357.872 28.6597 358.088 29.8794 358.519 30.867C358.956 31.8547 359.566 32.6005 360.348 33.1043C361.13 33.608 362.035 33.8599 363.063 33.8599C363.639 33.8599 364.173 33.7837 364.663 33.6312C365.161 33.4788 365.601 33.2567 365.986 32.9651C366.37 32.6668 366.688 32.3055 366.94 31.8812C367.199 31.457 367.378 30.9731 367.477 30.4295L371.832 30.4494C371.72 31.3841 371.438 32.2856 370.987 33.154C370.543 34.0157 369.943 34.788 369.188 35.4707C368.438 36.1469 367.544 36.6838 366.503 37.0815C365.469 37.4726 364.299 37.6682 362.993 37.6682C361.177 37.6682 359.553 37.2572 358.121 36.4352C356.696 35.6133 355.569 34.4234 354.74 32.8656C353.918 31.3079 353.507 29.422 353.507 27.208C353.507 24.9873 353.925 23.0981 354.76 21.5403C355.595 19.9826 356.729 18.796 358.161 17.9807C359.592 17.1587 361.203 16.7477 362.993 16.7477C364.173 16.7477 365.267 16.9134 366.274 17.2449C367.288 17.5763 368.187 18.0602 368.969 18.6966C369.751 19.3263 370.387 20.0986 370.878 21.0133C371.375 21.9281 371.693 22.9755 371.832 24.1554ZM379.195 37.6781C378.221 37.6781 377.353 37.5091 376.59 37.171C375.828 36.8263 375.225 36.3192 374.781 35.6497C374.343 34.9736 374.124 34.1317 374.124 33.1241C374.124 32.2757 374.28 31.5631 374.592 30.9864C374.903 30.4097 375.327 29.9456 375.864 29.5943C376.401 29.243 377.011 28.9778 377.694 28.7989C378.383 28.6199 379.106 28.4939 379.862 28.421C380.75 28.3282 381.466 28.242 382.009 28.1625C382.553 28.0763 382.947 27.9504 383.193 27.7847C383.438 27.6189 383.56 27.3737 383.56 27.0489V26.9892C383.56 26.3595 383.362 25.8723 382.964 25.5276C382.573 25.1829 382.016 25.0105 381.293 25.0105C380.531 25.0105 379.925 25.1795 379.474 25.5176C379.023 25.8491 378.725 26.2667 378.579 26.7705L374.661 26.4523C374.86 25.5242 375.251 24.7222 375.835 24.046C376.418 23.3633 377.17 22.8396 378.092 22.475C379.02 22.1038 380.094 21.9182 381.313 21.9182C382.162 21.9182 382.974 22.0176 383.749 22.2165C384.532 22.4153 385.224 22.7236 385.827 23.1412C386.437 23.5588 386.918 24.0957 387.269 24.752C387.621 25.4016 387.796 26.1805 387.796 27.0886V37.3898H383.779V35.2719H383.66C383.415 35.7491 383.086 36.1701 382.675 36.5347C382.264 36.8926 381.771 37.1743 381.194 37.3798C380.617 37.5787 379.951 37.6781 379.195 37.6781ZM380.408 34.7548C381.032 34.7548 381.582 34.6322 382.059 34.3869C382.536 34.135 382.911 33.797 383.183 33.3727C383.454 32.9485 383.59 32.4679 383.59 31.931V30.3102C383.458 30.3964 383.275 30.4759 383.043 30.5489C382.818 30.6151 382.563 30.6781 382.278 30.7378C381.993 30.7908 381.708 30.8405 381.423 30.8869C381.138 30.9267 380.879 30.9632 380.647 30.9963C380.15 31.0692 379.716 31.1852 379.345 31.3443C378.973 31.5034 378.685 31.7188 378.479 31.9906C378.274 32.2558 378.171 32.5872 378.171 32.9849C378.171 33.5616 378.38 34.0025 378.798 34.3074C379.222 34.6057 379.759 34.7548 380.408 34.7548ZM391.082 37.3898V22.117H395.189V24.7818H395.348C395.626 23.8339 396.094 23.118 396.75 22.6341C397.406 22.1436 398.162 21.8983 399.017 21.8983C399.229 21.8983 399.458 21.9116 399.703 21.9381C399.948 21.9646 400.164 22.001 400.349 22.0474V25.806C400.151 25.7463 399.876 25.6933 399.524 25.6469C399.173 25.6005 398.851 25.5773 398.56 25.5773C397.937 25.5773 397.38 25.7132 396.889 25.9849C396.405 26.2501 396.021 26.6213 395.736 27.0986C395.457 27.5758 395.318 28.126 395.318 28.7491V37.3898H391.082ZM408.789 37.6881C407.218 37.6881 405.865 37.3699 404.732 36.7335C403.605 36.0905 402.737 35.1824 402.127 34.0091C401.517 32.8292 401.212 31.4338 401.212 29.823C401.212 28.252 401.517 26.8732 402.127 25.6866C402.737 24.5001 403.595 23.5754 404.702 22.9125C405.816 22.2496 407.122 21.9182 408.62 21.9182C409.627 21.9182 410.565 22.0806 411.434 22.4054C412.309 22.7236 413.071 23.2042 413.721 23.8472C414.377 24.4901 414.887 25.2989 415.252 26.2733C415.616 27.2411 415.799 28.3746 415.799 29.6739V30.8372H402.902V28.2122H411.811C411.811 27.6024 411.679 27.0621 411.414 26.5915C411.149 26.1208 410.781 25.7529 410.31 25.4878C409.846 25.216 409.306 25.0801 408.689 25.0801C408.046 25.0801 407.476 25.2293 406.979 25.5276C406.489 25.8192 406.104 26.2136 405.826 26.7108C405.547 27.2013 405.405 27.7482 405.398 28.3514V30.8472C405.398 31.6028 405.537 32.2558 405.816 32.806C406.101 33.3562 406.502 33.7804 407.019 34.0787C407.536 34.377 408.149 34.5261 408.858 34.5261C409.329 34.5261 409.76 34.4598 410.151 34.3273C410.542 34.1947 410.877 33.9958 411.155 33.7307C411.434 33.4655 411.646 33.1407 411.792 32.7562L415.709 33.0148C415.51 33.9561 415.103 34.778 414.486 35.4807C413.876 36.1767 413.088 36.7203 412.12 37.1114C411.159 37.4958 410.048 37.6881 408.789 37.6881Z" fill="white"/>
<rect x="272.845" y="401.366" width="163.286" height="54.7797" rx="9.4811" fill="#C28840"/>
<path d="M299.082 438.756V418.392H307.116C308.66 418.392 309.976 418.687 311.063 419.277C312.15 419.861 312.979 420.673 313.549 421.713C314.126 422.748 314.414 423.941 314.414 425.293C314.414 426.645 314.122 427.838 313.539 428.873C312.956 429.907 312.111 430.712 311.004 431.289C309.903 431.865 308.571 432.154 307.006 432.154H301.886V428.704H306.31C307.139 428.704 307.822 428.561 308.359 428.276C308.902 427.984 309.307 427.583 309.572 427.073C309.843 426.556 309.979 425.963 309.979 425.293C309.979 424.617 309.843 424.027 309.572 423.523C309.307 423.013 308.902 422.618 308.359 422.34C307.815 422.055 307.126 421.912 306.29 421.912H303.387V438.756H299.082ZM326.925 432.253V423.483H331.161V438.756H327.094V435.982H326.935C326.59 436.877 326.017 437.596 325.215 438.14C324.419 438.683 323.448 438.955 322.301 438.955C321.281 438.955 320.382 438.723 319.607 438.259C318.831 437.795 318.225 437.135 317.787 436.28C317.356 435.425 317.138 434.401 317.131 433.208V423.483H321.367V432.452C321.373 433.354 321.615 434.066 322.093 434.59C322.57 435.114 323.21 435.375 324.012 435.375C324.522 435.375 324.999 435.259 325.444 435.027C325.888 434.789 326.246 434.437 326.517 433.973C326.796 433.509 326.932 432.936 326.925 432.253ZM334.549 438.756V423.483H338.656V426.148H338.815C339.093 425.2 339.56 424.484 340.217 424C340.873 423.51 341.629 423.265 342.484 423.265C342.696 423.265 342.924 423.278 343.17 423.304C343.415 423.331 343.63 423.367 343.816 423.414V427.172C343.617 427.113 343.342 427.06 342.991 427.013C342.639 426.967 342.318 426.944 342.026 426.944C341.403 426.944 340.846 427.079 340.356 427.351C339.872 427.616 339.487 427.988 339.202 428.465C338.924 428.942 338.785 429.492 338.785 430.115V438.756H334.549ZM346.006 444.483V423.483H350.182V426.049H350.371C350.557 425.638 350.825 425.22 351.176 424.796C351.534 424.365 351.998 424.007 352.569 423.722C353.145 423.43 353.861 423.285 354.716 423.285C355.83 423.285 356.857 423.576 357.799 424.16C358.74 424.736 359.492 425.608 360.056 426.775C360.619 427.935 360.901 429.39 360.901 431.14C360.901 432.843 360.626 434.282 360.076 435.455C359.532 436.622 358.79 437.507 357.848 438.11C356.914 438.706 355.866 439.005 354.706 439.005C353.884 439.005 353.185 438.869 352.608 438.597C352.038 438.325 351.571 437.984 351.206 437.573C350.842 437.155 350.563 436.734 350.371 436.31H350.242V444.483H346.006ZM350.152 431.12C350.152 432.028 350.278 432.82 350.53 433.496C350.782 434.172 351.147 434.699 351.624 435.077C352.101 435.448 352.681 435.634 353.364 435.634C354.053 435.634 354.637 435.445 355.114 435.067C355.591 434.683 355.953 434.152 356.198 433.476C356.45 432.794 356.576 432.008 356.576 431.12C356.576 430.238 356.453 429.463 356.208 428.793C355.962 428.124 355.601 427.6 355.124 427.222C354.647 426.844 354.06 426.655 353.364 426.655C352.675 426.655 352.091 426.838 351.614 427.202C351.143 427.567 350.782 428.084 350.53 428.753C350.278 429.423 350.152 430.212 350.152 431.12ZM370.625 439.054C369.081 439.054 367.745 438.726 366.618 438.07C365.498 437.407 364.633 436.486 364.023 435.306C363.413 434.119 363.108 432.744 363.108 431.179C363.108 429.602 363.413 428.223 364.023 427.043C364.633 425.856 365.498 424.935 366.618 424.279C367.745 423.616 369.081 423.285 370.625 423.285C372.17 423.285 373.502 423.616 374.622 424.279C375.749 424.935 376.618 425.856 377.228 427.043C377.837 428.223 378.142 429.602 378.142 431.179C378.142 432.744 377.837 434.119 377.228 435.306C376.618 436.486 375.749 437.407 374.622 438.07C373.502 438.726 372.17 439.054 370.625 439.054ZM370.645 435.773C371.348 435.773 371.935 435.574 372.405 435.177C372.876 434.772 373.23 434.222 373.469 433.526C373.714 432.83 373.837 432.038 373.837 431.15C373.837 430.261 373.714 429.469 373.469 428.773C373.23 428.077 372.876 427.527 372.405 427.123C371.935 426.718 371.348 426.516 370.645 426.516C369.936 426.516 369.339 426.718 368.855 427.123C368.378 427.527 368.017 428.077 367.772 428.773C367.533 429.469 367.414 430.261 367.414 431.15C367.414 432.038 367.533 432.83 367.772 433.526C368.017 434.222 368.378 434.772 368.855 435.177C369.339 435.574 369.936 435.773 370.645 435.773ZM393.604 427.838L389.726 428.077C389.66 427.746 389.517 427.447 389.299 427.182C389.08 426.91 388.792 426.695 388.434 426.536C388.082 426.37 387.661 426.287 387.171 426.287C386.515 426.287 385.961 426.427 385.51 426.705C385.06 426.977 384.834 427.341 384.834 427.799C384.834 428.163 384.98 428.472 385.272 428.723C385.563 428.975 386.064 429.178 386.773 429.33L389.537 429.887C391.022 430.192 392.129 430.682 392.858 431.358C393.587 432.035 393.952 432.923 393.952 434.023C393.952 435.024 393.657 435.902 393.067 436.658C392.484 437.414 391.682 438.004 390.661 438.428C389.647 438.846 388.477 439.054 387.151 439.054C385.129 439.054 383.518 438.633 382.319 437.792C381.125 436.943 380.426 435.79 380.221 434.331L384.387 434.113C384.513 434.729 384.818 435.2 385.301 435.525C385.785 435.843 386.405 436.002 387.161 436.002C387.903 436.002 388.5 435.859 388.951 435.574C389.408 435.283 389.64 434.908 389.647 434.451C389.64 434.066 389.478 433.751 389.159 433.506C388.841 433.254 388.351 433.062 387.688 432.929L385.043 432.402C383.551 432.104 382.441 431.587 381.712 430.851C380.989 430.115 380.628 429.178 380.628 428.037C380.628 427.056 380.893 426.211 381.424 425.502C381.961 424.793 382.713 424.246 383.681 423.861C384.655 423.477 385.795 423.285 387.101 423.285C389.03 423.285 390.548 423.692 391.655 424.508C392.769 425.323 393.418 426.433 393.604 427.838ZM403.58 439.054C402.009 439.054 400.656 438.736 399.523 438.1C398.396 437.457 397.527 436.549 396.918 435.375C396.308 434.195 396.003 432.8 396.003 431.189C396.003 429.618 396.308 428.24 396.918 427.053C397.527 425.866 398.386 424.942 399.493 424.279C400.607 423.616 401.912 423.285 403.41 423.285C404.418 423.285 405.356 423.447 406.224 423.772C407.099 424.09 407.862 424.57 408.511 425.213C409.168 425.856 409.678 426.665 410.043 427.64C410.407 428.607 410.589 429.741 410.589 431.04V432.204H397.693V429.579H406.602C406.602 428.969 406.47 428.428 406.205 427.958C405.939 427.487 405.571 427.119 405.101 426.854C404.637 426.582 404.097 426.446 403.48 426.446C402.837 426.446 402.267 426.596 401.77 426.894C401.279 427.186 400.895 427.58 400.616 428.077C400.338 428.568 400.196 429.115 400.189 429.718V432.213C400.189 432.969 400.328 433.622 400.607 434.172C400.892 434.722 401.293 435.147 401.81 435.445C402.327 435.743 402.94 435.892 403.649 435.892C404.12 435.892 404.551 435.826 404.942 435.694C405.333 435.561 405.668 435.362 405.946 435.097C406.224 434.832 406.437 434.507 406.582 434.123L410.5 434.381C410.301 435.322 409.893 436.144 409.277 436.847C408.667 437.543 407.878 438.087 406.91 438.478C405.949 438.862 404.839 439.054 403.58 439.054Z" fill="white"/>
<mask id="mask0_1751_134" style="mask-type:alpha" maskUnits="userSpaceOnUse" x="347" y="19" width="241" height="409">
<rect width="241" height="409" transform="matrix(-1 0 0 1 588 19)" fill="#D9D9D9"/>
</mask>
<g mask="url(#mask0_1751_134)">
<circle cx="550.957" cy="224.386" r="204.37" fill="white"/>
<circle cx="603.63" cy="224.386" r="204.37" fill="#4F2816"/>
<circle cx="603.5" cy="224.073" r="162.5" fill="#C28840"/>
<circle cx="603.5" cy="224.073" r="162.5" fill="#C28840"/>
<circle cx="603.5" cy="224.073" r="109.5" fill="#C28840"/>
<circle cx="603.5" cy="224.073" r="109.5" fill="#4F2816"/>
</g>
</svg>
