<svg width="269" height="67" viewBox="0 0 269 67" fill="none" xmlns="http://www.w3.org/2000/svg">
<path d="M219.862 16.7642V7.63635H262.867V16.7642H246.836V60H235.893V16.7642H219.862Z" fill="white"/>
<path d="M201.676 7.63635H212.747V41.642C212.747 45.4602 211.835 48.8011 210.011 51.6648C208.205 54.5284 205.673 56.7614 202.418 58.3636C199.162 59.9489 195.369 60.7415 191.04 60.7415C186.693 60.7415 182.892 59.9489 179.636 58.3636C176.381 56.7614 173.849 54.5284 172.043 51.6648C170.236 48.8011 169.332 45.4602 169.332 41.642V7.63635H180.403V40.696C180.403 42.6903 180.838 44.4631 181.707 46.0142C182.594 47.5653 183.838 48.7841 185.44 49.6704C187.043 50.5568 188.909 51 191.04 51C193.188 51 195.054 50.5568 196.639 49.6704C198.241 48.7841 199.477 47.5653 200.347 46.0142C201.233 44.4631 201.676 42.6903 201.676 40.696V7.63635Z" fill="white"/>
<path d="M161.131 33.8181C161.131 39.5284 160.049 44.3863 157.884 48.392C155.737 52.3977 152.805 55.4573 149.089 57.571C145.39 59.6676 141.231 60.7159 136.612 60.7159C131.958 60.7159 127.782 59.6591 124.083 57.5454C120.384 55.4318 117.461 52.3721 115.313 48.3664C113.166 44.3608 112.092 39.5113 112.092 33.8181C112.092 28.1079 113.166 23.25 115.313 19.2443C117.461 15.2386 120.384 12.1875 124.083 10.0909C127.782 7.97723 131.958 6.92041 136.612 6.92041C141.231 6.92041 145.39 7.97723 149.089 10.0909C152.805 12.1875 155.737 15.2386 157.884 19.2443C160.049 23.25 161.131 28.1079 161.131 33.8181ZM149.907 33.8181C149.907 30.1193 149.353 27 148.245 24.4602C147.154 21.9204 145.612 19.9943 143.617 18.6818C141.623 17.3693 139.288 16.713 136.612 16.713C133.935 16.713 131.6 17.3693 129.606 18.6818C127.612 19.9943 126.06 21.9204 124.952 24.4602C123.862 27 123.316 30.1193 123.316 33.8181C123.316 37.517 123.862 40.6363 124.952 43.1761C126.06 45.7159 127.612 47.642 129.606 48.9545C131.6 50.267 133.935 50.9233 136.612 50.9233C139.288 50.9233 141.623 50.267 143.617 48.9545C145.612 47.642 147.154 45.7159 148.245 43.1761C149.353 40.6363 149.907 37.517 149.907 33.8181Z" fill="white"/>
<path d="M65.4105 60V7.63635H86.3764C90.2287 7.63635 93.4418 8.20737 96.0156 9.34942C98.5895 10.4915 100.524 12.0767 101.82 14.1051C103.115 16.1165 103.763 18.4347 103.763 21.0597C103.763 23.1051 103.354 24.9034 102.536 26.4545C101.717 27.9886 100.592 29.25 99.1605 30.2386C97.7458 31.2102 96.1264 31.9006 94.3026 32.3096V32.821C96.2969 32.9062 98.1634 33.4687 99.902 34.5085C101.658 35.5483 103.081 37.0057 104.172 38.8807C105.263 40.7386 105.808 42.9545 105.808 45.5284C105.808 48.3068 105.118 50.7869 103.737 52.9687C102.374 55.1335 100.354 56.8466 97.6776 58.1079C95.0014 59.3693 91.7031 60 87.7827 60H65.4105ZM76.4815 50.9489H85.5071C88.5923 50.9489 90.8423 50.3608 92.2571 49.1846C93.6719 47.9915 94.3793 46.4062 94.3793 44.429C94.3793 42.9801 94.0298 41.7017 93.331 40.5937C92.6321 39.4858 91.635 38.6165 90.3395 37.9858C89.0611 37.3551 87.5355 37.0398 85.7628 37.0398H76.4815V50.9489ZM76.4815 29.5483H84.6889C86.206 29.5483 87.5526 29.2841 88.7287 28.7557C89.9219 28.2102 90.8594 27.4432 91.5412 26.4545C92.2401 25.4659 92.5895 24.2812 92.5895 22.9006C92.5895 21.0085 91.9162 19.4829 90.5696 18.3239C89.2401 17.1648 87.348 16.5852 84.8935 16.5852H76.4815V29.5483Z" fill="white"/>
<path d="M20.5768 60H8.71313L26.7898 7.63635H41.0569L59.108 60H47.2444L34.1279 19.6023H33.7188L20.5768 60ZM19.8353 39.4176H47.858V48.0596H19.8353V39.4176Z" fill="white"/>
<path fill-rule="evenodd" clip-rule="evenodd" d="M213.862 22.7642V1.63635H268.867V22.7642H252.836V66H229.893V22.7642H213.862ZM235.893 16.7642V60H246.836V16.7642H262.867V7.63635H219.862V16.7642H235.893Z" fill="#EEA954"/>
<path fill-rule="evenodd" clip-rule="evenodd" d="M195.676 1.63635H218.747V41.642C218.747 46.4509 217.586 50.936 215.079 54.8766C212.639 58.74 209.239 61.6937 205.067 63.747L205.056 63.7526L205.044 63.7581C200.825 65.8123 196.103 66.7415 191.04 66.7415C185.963 66.7415 181.232 65.8138 177.01 63.7581L176.998 63.7526L176.987 63.747C172.811 61.6919 169.409 58.7348 166.968 54.8664C164.482 50.9259 163.332 46.4447 163.332 41.642V1.63635H186.403V40.696C186.403 41.7762 186.627 42.5114 186.93 43.0594C187.255 43.6205 187.688 44.0569 188.345 44.4202C188.922 44.7397 189.758 45 191.04 45C192.35 45 193.171 44.7353 193.711 44.4335L193.723 44.4268L193.735 44.4202C194.391 44.0574 194.806 43.6279 195.113 43.0808L195.125 43.059L195.137 43.0374C195.447 42.4948 195.676 41.7703 195.676 40.696V1.63635ZM210.011 51.6648C211.835 48.8011 212.747 45.4602 212.747 41.642V7.63635H201.676V40.696C201.676 42.6903 201.233 44.4631 200.347 46.0142C199.477 47.5653 198.241 48.7841 196.639 49.6704C195.054 50.5568 193.188 51 191.04 51C188.909 51 187.043 50.5568 185.44 49.6704C183.838 48.7841 182.594 47.5653 181.707 46.0142C180.838 44.4631 180.403 42.6903 180.403 40.696V7.63635H169.332V41.642C169.332 45.4602 170.236 48.8011 172.043 51.6648C173.849 54.5284 176.381 56.7614 179.636 58.3636C182.892 59.9489 186.693 60.7415 191.04 60.7415C195.369 60.7415 199.162 59.9489 202.418 58.3636C205.673 56.7614 208.205 54.5284 210.011 51.6648Z" fill="#EEA954"/>
<path fill-rule="evenodd" clip-rule="evenodd" d="M148.245 24.4602C147.154 21.9204 145.612 19.9943 143.617 18.6818C141.623 17.3693 139.288 16.713 136.612 16.713C133.935 16.713 131.6 17.3693 129.606 18.6818C127.612 19.9943 126.06 21.9204 124.952 24.4602C123.862 27 123.316 30.1193 123.316 33.8181C123.316 37.517 123.862 40.6363 124.952 43.1761C126.06 45.7159 127.612 47.642 129.606 48.9545C131.6 50.267 133.935 50.9233 136.612 50.9233C139.288 50.9233 141.623 50.267 143.617 48.9545C145.612 47.642 147.154 45.7159 148.245 43.1761C149.353 40.6363 149.907 37.517 149.907 33.8181C149.907 30.1193 149.353 27 148.245 24.4602ZM130.459 40.7928C131.177 42.4321 132.032 43.3686 132.904 43.9425C133.804 44.5343 134.961 44.9233 136.612 44.9233C138.262 44.9233 139.42 44.5343 140.319 43.9425C141.185 43.3727 142.03 42.4433 142.732 40.8081L142.739 40.7925L142.746 40.777C143.433 39.2019 143.907 36.9533 143.907 33.8181C143.907 30.6829 143.433 28.4343 142.746 26.8593L142.739 26.8437L142.732 26.8282C142.03 25.193 141.185 24.2636 140.319 23.6938C139.42 23.1019 138.262 22.713 136.612 22.713C134.961 22.713 133.804 23.1019 132.904 23.6938C132.032 24.2676 131.177 25.2042 130.459 26.8434C129.782 28.4273 129.316 30.6832 129.316 33.8181C129.316 36.9531 129.782 39.2089 130.459 40.7928ZM152.055 62.7863L152.048 62.7908C147.369 65.4424 142.176 66.7159 136.612 66.7159C131.013 66.7159 125.794 65.4336 121.106 62.7549C116.363 60.0447 112.668 56.1307 110.025 51.2016C107.307 46.1309 106.092 40.2554 106.092 33.8181C106.092 27.3672 107.305 21.4822 110.025 16.4091C112.668 11.4798 116.366 7.57082 121.115 4.87655C125.8 2.20112 131.016 0.92041 136.612 0.92041C142.179 0.92041 147.374 2.20384 152.051 4.8731C156.814 7.56377 160.522 11.4696 163.168 16.4004C165.908 21.4756 167.131 27.364 167.131 33.8181C167.131 40.2741 165.907 46.1641 163.165 51.2403C160.519 56.1702 156.813 60.0804 152.055 62.7863ZM157.884 19.2443C155.737 15.2386 152.805 12.1875 149.089 10.0909C145.39 7.97723 141.231 6.92041 136.612 6.92041C131.958 6.92041 127.782 7.97723 124.083 10.0909C120.384 12.1875 117.461 15.2386 115.313 19.2443C113.166 23.25 112.092 28.1079 112.092 33.8181C112.092 39.5113 113.166 44.3608 115.313 48.3664C117.461 52.3721 120.384 55.4318 124.083 57.5454C127.782 59.659 131.958 60.7159 136.612 60.7159C141.231 60.7159 145.39 59.6676 149.089 57.571C152.805 55.4573 155.737 52.3977 157.884 48.392C160.049 44.3863 161.131 39.5284 161.131 33.8181C161.131 28.1079 160.049 23.25 157.884 19.2443Z" fill="#EEA954"/>
<path fill-rule="evenodd" clip-rule="evenodd" d="M59.4104 66V1.63635H86.3763C90.7768 1.63635 94.882 2.28234 98.449 3.86506C101.909 5.40034 104.839 7.69024 106.87 10.866C108.845 13.937 109.763 17.4026 109.763 21.0597C109.763 23.918 109.186 26.7066 107.842 29.2538L107.836 29.266L107.83 29.2781C107.351 30.1748 106.802 31.0156 106.184 31.7973C107.415 32.9812 108.471 34.3413 109.351 35.852C111.076 38.7934 111.808 42.0987 111.808 45.5284C111.808 49.3506 110.843 52.9582 108.811 56.1719C106.747 59.446 103.779 61.865 100.236 63.5353C96.5435 65.2755 92.3131 66 87.7826 66H59.4104ZM103.737 52.9687C105.118 50.7869 105.808 48.3068 105.808 45.5284C105.808 42.9545 105.263 40.7386 104.172 38.8807C103.468 37.6709 102.626 36.6349 101.645 35.7729C101.106 35.2989 100.525 34.8774 99.9019 34.5085C98.197 33.4889 96.3691 32.9282 94.4184 32.8265C94.3798 32.8245 94.3411 32.8227 94.3024 32.821V32.3096C94.3098 32.308 94.3172 32.3063 94.3245 32.3047C96.1394 31.895 97.7513 31.2063 99.1604 30.2386C99.9262 29.7099 100.604 29.1031 101.195 28.4182C101.708 27.8227 102.155 27.1681 102.535 26.4545C103.354 24.9034 103.763 23.1051 103.763 21.0597C103.763 18.4347 103.115 16.1165 101.819 14.1051C100.524 12.0767 98.5894 10.4915 96.0155 9.34942C93.4417 8.20738 90.2286 7.63635 86.3763 7.63635H65.4104V60H87.7826C91.703 60 95.0013 59.3693 97.6774 58.1079C100.354 56.8466 102.373 55.1335 103.737 52.9687ZM91.5534 38.709C91.183 38.4405 90.7783 38.1995 90.3394 37.9858C89.7187 37.6796 89.0397 37.4477 88.3024 37.2902C87.5213 37.1232 86.6747 37.0398 85.7627 37.0398H76.4814V50.9489H85.507C88.5922 50.9489 90.8422 50.3608 92.257 49.1846C93.6718 47.9915 94.3792 46.4062 94.3792 44.429C94.3792 42.9801 94.0297 41.7017 93.3309 40.5937C92.8688 39.8612 92.2763 39.2329 91.5534 38.709ZM88.3734 44.5786C88.3766 44.5404 88.3792 44.4908 88.3792 44.429C88.3792 43.9899 88.2879 43.8452 88.2563 43.7951C88.2121 43.7251 88.1078 43.5726 87.713 43.3804L87.6989 43.3736L87.6848 43.3666C87.4084 43.2303 86.834 43.0398 85.7627 43.0398H82.4814V44.9489H85.507C86.6933 44.9489 87.4925 44.8332 87.9912 44.7028C88.1737 44.6551 88.2969 44.6106 88.3734 44.5786ZM88.3024 28.9327C88.4469 28.8774 88.5889 28.8184 88.7286 28.7557C89.7595 28.2844 90.5996 27.6477 91.2488 26.8455C91.3509 26.7193 91.4484 26.589 91.5411 26.4545C92.2399 25.4659 92.5894 24.2812 92.5894 22.9006C92.5894 21.0085 91.9161 19.4829 90.5695 18.3239C89.2399 17.1648 87.3479 16.5852 84.8934 16.5852H76.4814V29.5483H84.6888C86.0257 29.5483 87.2303 29.3431 88.3024 28.9327ZM82.4814 23.5483H84.6888C85.4896 23.5483 85.9714 23.4134 86.2525 23.2903C86.4615 23.1927 86.546 23.1165 86.5804 23.0767C86.5849 23.0394 86.5894 22.9818 86.5894 22.9006C86.5894 22.8742 86.5889 22.8508 86.588 22.8301C86.4293 22.754 85.9536 22.5852 84.8934 22.5852H82.4814V23.5483Z" fill="#EEA954"/>
<path fill-rule="evenodd" clip-rule="evenodd" d="M24.9344 66H0.294434L22.5137 1.63635H45.3351L65.4106 59.8725V60H65.4546L67.5229 66H42.8842L39.0074 54.0597H28.8188L24.9344 66ZM43.3676 48.0596L47.2444 60H59.1081L41.0569 7.63635H26.7899L8.71318 60H20.5768L24.4612 48.0596H43.3676ZM27.2726 39.4176H40.5617L34.128 19.6023H33.7189L27.2726 39.4176Z" fill="#EEA954"/>
</svg>
