<svg width="127" height="70" viewBox="0 0 127 70" fill="none" xmlns="http://www.w3.org/2000/svg">
<path d="M32.5333 5H46.4667V65H32.5333V5Z" fill="#4F2816"/>
<path d="M30 0H49V2C49 3.10457 47.8658 4 46.4667 4H32.5333C31.1342 4 30 3.10457 30 2V0Z" fill="#4F2816"/>
<path d="M49 70H30V68C30 66.8954 31.1342 66 32.5333 66H46.4667C47.8658 66 49 66.8954 49 68V70Z" fill="#4F2816"/>
<path d="M5.53333 25H19.4667V65H5.53333V25Z" fill="#4F2816"/>
<path d="M22 70H3V68C3 66.8954 4.13421 66 5.53333 66H19.4667C20.8658 66 22 66.8954 22 68V70Z" fill="#4F2816"/>
<path d="M3 20H22V22C22 23.1046 20.8658 24 19.4667 24H5.53333C4.13421 24 3 23.1046 3 22V20Z" fill="#4F2816"/>
<path d="M58.5333 5H72.4667V65H58.5333V5Z" fill="#4F2816"/>
<path d="M56 0H75V2C75 3.10457 73.8658 4 72.4667 4H58.5333C57.1342 4 56 3.10457 56 2V0Z" fill="#4F2816"/>
<path d="M75 70H56V68C56 66.8954 57.1342 66 58.5333 66H72.4667C73.8658 66 75 66.8954 75 68V70Z" fill="#4F2816"/>
<path d="M84.5333 5H98.4667V65H84.5333V5Z" fill="#4F2816"/>
<path d="M82 0H101V2C101 3.10457 99.8658 4 98.4667 4H84.5333C83.1342 4 82 3.10457 82 2V0Z" fill="#4F2816"/>
<path d="M101 70H82V68C82 66.8954 83.1342 66 84.5333 66H98.4667C99.8658 66 101 66.8954 101 68V70Z" fill="#4F2816"/>
<path d="M110.533 5H124.467V65H110.533V5Z" fill="#4F2816"/>
<path d="M108 0H127V2C127 3.10457 125.866 4 124.467 4H110.533C109.134 4 108 3.10457 108 2V0Z" fill="#4F2816"/>
<path d="M127 70H108V68C108 66.8954 109.134 66 110.533 66H124.467C125.866 66 127 66.8954 127 68V70Z" fill="#4F2816"/>
<mask id="mask0_1751_165" style="mask-type:alpha" maskUnits="userSpaceOnUse" x="0" y="7" width="23" height="12">
<rect y="7.36914" width="23" height="11" fill="#D9D9D9"/>
</mask>
<g mask="url(#mask0_1751_165)">
<circle cx="11.5" cy="13.8691" r="6.5" fill="#C28840"/>
</g>
</svg>
